<?xml version="1.0" encoding="utf-8"?>
<!-- Generator: Adobe Illustrator 19.2.1, SVG Export Plug-In . SVG Version: 6.00 Build 0)  -->
<svg version="1.1" id="Ebene_1" xmlns="http://www.w3.org/2000/svg" xmlns:xlink="http://www.w3.org/1999/xlink" x="0px" y="0px"
	 viewBox="0 0 50 50" style="enable-background:new 0 0 50 50;" xml:space="preserve">
<style type="text/css">
	.st0{fill:#D91F26;}
	.st1{fill:#D6242A;}
</style>
<g>
	<polygon class="st0" points="24.6,36.7 28.8,36.7 27.7,32.2 24.6,32.2 	"/>
	<rect x="32" y="19" class="st0" width="4.4" height="4.4"/>
	<polygon class="st0" points="29,23.4 29,19 24.6,19 24.6,23.4 25.5,23.4 25.4,23 26.5,23.4 	"/>
	<polygon class="st0" points="24.6,30.1 27.2,30.1 26.1,25.7 24.6,25.7 	"/>
	<path class="st0" d="M29.2,38.2h-22V17.4h32.1v11.2l3.2,1.3V11H34v1.7c0,1.2-1,2.3-2.3,2.3h-0.2c-1.2,0-2.3-1-2.3-2.3V11H14.8v1.7
		c0,1.2-1,2.3-2.3,2.3h-0.2c-1.2,0-2.3-1-2.3-2.3V11H4v30.4h26.1L29.2,38.2z"/>
	<path class="st0" d="M31.7,13.6c0.7,0,1.2-0.6,1.2-1.2V5.9c0-0.7-0.6-1.2-1.2-1.2c-0.7,0-1.2,0.6-1.2,1.2v6.5
		C30.4,13.1,31,13.6,31.7,13.6z M12.4,13.6c0.7,0,1.2-0.6,1.2-1.2V5.9c0-0.7-0.6-1.2-1.2-1.2c-0.7,0-1.2,0.6-1.2,1.2v6.5
		C11.2,13.1,11.7,13.6,12.4,13.6z"/>
	<rect x="9.9" y="19" class="st0" width="4.4" height="4.4"/>
	<rect x="9.9" y="25.7" class="st0" width="4.4" height="4.4"/>
	<rect x="17.3" y="19" class="st0" width="4.4" height="4.4"/>
	<rect x="9.9" y="32.2" class="st0" width="4.4" height="4.4"/>
	<rect x="17.3" y="32.2" class="st0" width="4.4" height="4.4"/>
	<polygon class="st0" points="36.4,25.7 32,25.7 36.4,27.5 	"/>
	<rect x="17.3" y="25.7" class="st0" width="4.4" height="4.4"/>
	<path class="st1" d="M28.9,26.9l4.3,16.9l3.4-5.4l6,6.7c0,0,1.4,0.5,2.1-0.3s0.4-2,0.4-2L39,36.1l6-2.6L28.9,26.9z"/>
</g>
</svg>
