<?xml version="1.0" encoding="utf-8"?>
<!-- Generator: Adobe Illustrator 19.2.1, SVG Export Plug-In . SVG Version: 6.00 Build 0)  -->
<svg version="1.1" id="Ebene_1" xmlns="http://www.w3.org/2000/svg" xmlns:xlink="http://www.w3.org/1999/xlink" x="0px" y="0px"
	 viewBox="0 0 50 50" style="enable-background:new 0 0 50 50;" xml:space="preserve">
<style type="text/css">
	.st0{fill:#D91F26;}
</style>
<g>
	<path class="st0" d="M24,18.5v-14H4v40h17.3c-1.1-1.9-1.7-4-1.7-6.2c0-7.1,6.1-12.9,13.5-12.9c1.7,0,3.9,0.3,4.9,0.9v-7.8H24z
		 M13,34.5H9v-4h4V34.5z M13,25.5H9v-4h4V25.5z M13,17.5H9v-4h4V17.5z"/>
	<polygon class="st0" points="42.1,27.9 31.3,38.8 27.4,34.8 24.4,37.8 28.3,41.7 28.3,41.8 31.3,44.7 45.1,30.9 	"/>
	<polygon class="st0" points="28,4.6 28,14.4 38.2,14.4 	"/>
</g>
</svg>
