<?xml version="1.0" encoding="utf-8"?>
<!-- Generator: Adobe Illustrator 19.2.1, SVG Export Plug-In . SVG Version: 6.00 Build 0)  -->
<svg version="1.1" id="Ebene_1" xmlns="http://www.w3.org/2000/svg" xmlns:xlink="http://www.w3.org/1999/xlink" x="0px" y="0px"
	 viewBox="0 0 50 50" style="enable-background:new 0 0 50 50;" xml:space="preserve">
<style type="text/css">
	.st0{fill:#D40511;}
</style>
<path class="st0" d="M30.7,7.4c-0.6-0.6-1.4-1.2-2.5-1.5c-1-0.3-2-0.5-2.9-0.4h-0.4c0.1,0,0.1,0-0.1,0c-1-0.1-2,0.1-2.9,0.4
	c-1.1,0.3-1.9,0.8-2.5,1.5c-0.7,0.8-1.3,1.5-1.6,2.2c-0.3,0.6-0.4,1.3-0.5,2.1c-0.1,1-0.2,2.5-0.1,4.4c-0.6-0.1-0.9,0.6-0.8,2.3
	c0.1,1.6,0.8,3.2,2.2,4.6c0.2,0.7,0.5,1.5,0.9,2.3c0.5,0.8,1.1,1.5,1.8,2.2c0.6,0.5,1.2,0.9,1.7,1.1c0.6,0.2,1.2,0.3,1.8,0.3
	c0.9,0,1.6-0.1,2.3-0.3c0.5-0.2,1.1-0.6,1.7-1.1c0.7-0.6,1.3-1.4,1.8-2.2c0.4-0.7,0.7-1.5,0.9-2.3c1.4-1.4,2.2-3,2.2-4.6
	c0.1-1.6-0.2-2.4-0.8-2.2c0.1-1.9,0.1-3.3-0.1-4.4c-0.1-0.8-0.3-1.5-0.5-2.1C31.9,8.9,31.4,8.2,30.7,7.4L30.7,7.4z M43.9,44.4
	c0.1-4.3-1-8-3.1-11.2c-2.6-3.1-5.9-4.9-9.7-5.1l-3.4,12.1L26.1,35l1.3-1.5c0.2-0.2,0.3-0.4,0.2-0.8v-1c-0.1-0.4-0.2-0.6-0.5-0.6h-4
	c-0.3,0.1-0.5,0.3-0.5,0.6v1c-0.1,0.4,0,0.6,0.2,0.8l1.3,1.5l-1.6,5.2l-3.4-12.1c-3.8,0.3-7,2-9.7,5.1C7,36.4,5.9,40.1,6,44.4H43.9
	L43.9,44.4z"/>
</svg>
